<svg width="41" height="41" viewBox="0 0 41 41" fill="none" xmlns="http://www.w3.org/2000/svg">
<rect width="41" height="41" rx="6" fill="white"/>
<path d="M16.564 14.602C15.7133 14.602 15.0313 14.3747 14.518 13.92C14.0047 13.4653 13.748 12.8933 13.748 12.204C13.748 11.5 14.0047 10.9207 14.518 10.466C15.0313 9.99667 15.7133 9.762 16.564 9.762C17.4 9.762 18.0747 9.99667 18.588 10.466C19.1013 10.9207 19.358 11.5 19.358 12.204C19.358 12.8933 19.1013 13.4653 18.588 13.92C18.0747 14.3747 17.4 14.602 16.564 14.602ZM18.984 15.592V28H14.1V15.592H18.984ZM23.6538 14.602C22.8032 14.602 22.1212 14.3747 21.6078 13.92C21.0945 13.4653 20.8378 12.8933 20.8378 12.204C20.8378 11.5 21.0945 10.9207 21.6078 10.466C22.1212 9.99667 22.8032 9.762 23.6538 9.762C24.4898 9.762 25.1645 9.99667 25.6778 10.466C26.1912 10.9207 26.4478 11.5 26.4478 12.204C26.4478 12.8933 26.1912 13.4653 25.6778 13.92C25.1645 14.3747 24.4898 14.602 23.6538 14.602ZM26.0738 15.592V28H21.1898V15.592H26.0738Z" fill="#019668"/>
</svg>
